<svg xmlns="http://www.w3.org/2000/svg" viewBox="0 0 512 512">
  <defs>
    <linearGradient id="fond" x1=".1" y1="0" x2=".8" y2="1">
      <stop offset="0" stop-color="#e8a0ae"/><stop offset=".5" stop-color="#d4738a"/><stop offset="1" stop-color="#8f3f52"/>
    </linearGradient>
    <linearGradient id="carte" x1=".2" y1="0" x2=".6" y2="1">
      <stop offset="0" stop-color="#ffffff"/><stop offset="1" stop-color="#f0f6f2"/>
    </linearGradient>
    <filter id="o" x="-40%" y="-40%" width="180%" height="180%">
      <feDropShadow dx="0" dy="12" stdDeviation="16" flood-color="#3d1420" flood-opacity=".32"/></filter>
  </defs>
  <rect width="512" height="512" rx="116" fill="url(#fond)"/>
  <g filter="url(#o)">
    <rect x="176" y="86" width="26" height="62" rx="13" fill="#f3ccd4"/>
    <rect x="310" y="86" width="26" height="62" rx="13" fill="#f3ccd4"/>
    <rect x="110" y="118" width="292" height="292" rx="52" fill="url(#carte)"/>
    <g fill="#c25f78" opacity=".22">
      <circle cx="180" cy="176" r="9"/><circle cx="332" cy="176" r="9"/>
    </g>
    <path d="M256 352V240" stroke="#c25f78" stroke-width="26" stroke-linecap="round" fill="none"/>
    <path d="M248 262c-10-46-42-68-84-62-4 44 32 74 84 62z" fill="#e0a94d"/>
    <path d="M264 292c10-42 40-62 78-56 4 40-30 68-78 56z" fill="#d4738a"/>
  </g>
</svg>
